<svg aria-hidden="true" style="position: absolute; width: 0; height: 0; overflow: hidden;" version="1.1" xmlns="http://www.w3.org/2000/svg" xmlns:xlink="http://www.w3.org/1999/xlink">
<defs>
<symbol id="x" viewBox="0 0 32 32">
<path d="M28.231 24.904l-7.796-8.904 7.796-8.904c1.32-1.32 1.32-3.474 0-4.794s-3.474-1.32-4.794 0l-7.497 8.555-7.484-8.555c-1.332-1.332-3.474-1.332-4.807 0-1.32 1.32-1.32 3.474 0 4.794l7.796 8.904-7.796 8.904c-1.32 1.32-1.32 3.474 0 4.794s3.474 1.32 4.794 0l7.497-8.568 7.497 8.568c1.32 1.32 3.474 1.32 4.794 0s1.32-3.474 0-4.794z"></path>
</symbol>
</defs>
</svg>
